# xmcd
#
# Track frame offsets: 
#        150
#        17492
#        34806
#        53348
#        71989
#        91042
#        108927
#        127224
#        143975
#        160334
#        178153
#
# Disc length: 2644 seconds
#
# Revision: 0
# Processed by: cddbd v1.5.2PL0 Copyright (c) Steve Scherf et al.
# Submitted via: ExactAudioCopy v0.95b4
#
DISCID=930a520b
DTITLE=Bobby Rush - Look At What You Gettin'
DYEAR=2008
DGENRE=Blues
TTITLE0=Another Kind Of Fool
TTITLE1=Ain't No Love Like My Baby's Love
TTITLE2=Let Me Love You 
TTITLE3=Look At What You Gettin'
TTITLE4=I Got 3 Problems
TTITLE5=Hooked On You
TTITLE6=Get Up, Show Me What You Working With
TTITLE7=She's Fine
TTITLE8=I Should Have Left You
TTITLE9=She Ain't Lovin' Me Like She Oughta
TTITLE10=Train And My Hound Dog
EXTD=
EXTT0=
EXTT1=
EXTT2=
EXTT3=
EXTT4=
EXTT5=
EXTT6=
EXTT7=
EXTT8=
EXTT9=
EXTT10=
PLAYORDER=
